<svg xmlns="http://www.w3.org/2000/svg" viewBox="15.9 47.9131 480.2 416.2">
	<path d="m 476.59 227.05 l -0.16 -0.07 L 49.35 49.84 A 23.56 23.56 0 0 0 27.14 52 A 24.65 24.65 0 0 0 16 72.59 v 113.29 a 24 24 0 0 0 19.52 23.57 l 168.45 43.07 A 4 4 0 0 1 203.9 260.38 L 35.53 303.45 A 24 24 0 0 0 16 327 v 113.31 A 23.57 23.57 0 0 0 26.59 460 a 23.94 23.94 0 0 0 13.22 4 a 24.55 24.55 0 0 0 9.52 -1.93 L 476.4 285.94 l 0.19 -0.09 a 32 32 0 0 0 0 -58.8 z" stroke="#FF0000" stroke-width="0.1" fill="#fff"/>
</svg>